<svg xmlns="http://www.w3.org/2000/svg" viewBox="0 0 453.709 453.709"><path d="M226.855 107.159c-39.93 0-72.414 32.484-72.414 72.413a72.066 72.066 0 003.903 23.403c24.049 11.721 46.678 25.7 68.511 41.768 23.573-17.342 46.233-30.91 68.512-41.768a72.06 72.06 0 003.903-23.402c-.001-39.93-32.486-72.414-72.415-72.414z"/><path d="M376.747 130.87a14.999 14.999 0 00-9.794-9.683l-41.777-13.05.5-43.766a15.001 15.001 0 00-19.797-14.383l-41.469 14-25.32-35.7a15 15 0 00-24.47 0l-25.32 35.7-41.47-13.999a15 15 0 00-19.797 14.383l.5 43.766-41.777 13.05a15 15 0 00-7.563 23.273l28.591 38.217a360.3 360.3 0 0117.056 5.886 103.226 103.226 0 01-.399-8.991c0-56.396 45.891-102.413 102.414-102.413 56.543 0 102.414 46.029 102.414 102.413 0 3.03-.14 6.027-.399 8.991a360.439 360.439 0 0117.453-6.011l28.193-38.093a15 15 0 002.231-13.59zm76.679 99.182c-.017-8.947-3.831-17.539-10.465-23.573a32.046 32.046 0 00-19.595-8.252c-4.215-.268-81.859 1.882-172 65.708a571.336 571.336 0 0123.169 20.348c24.6 22.794 48.291 48.59 70.812 77.19 9.115 11.576 13.617 25.945 13.198 40.27-.309 10.539-3.25 20.817-8.798 30h71.92l.02-.001h.075c8.544 0 16.573-3.33 22.608-9.377 6.033-6.041 9.351-14.075 9.338-22.619l-.282-169.694z"/><path d="M207.064 267.412c-55.626-40.47-113.455-63.724-171.882-69.116a32.03 32.03 0 00-24.435 8.184C4.114 212.513.3 221.105.283 230.052L0 399.748c-.013 8.544 3.305 16.578 9.338 22.619 6.035 6.047 14.064 9.377 22.608 9.377H296.69c12.156 0 23.439-7.066 28.744-18.005 5.298-10.926 3.862-24.156-3.657-33.706-33.246-42.22-71.611-81.264-114.713-112.621z"/></svg>