<?xml version="1.0" encoding="iso-8859-1"?>
<!-- Generator: Adobe Illustrator 18.0.0, SVG Export Plug-In . SVG Version: 6.00 Build 0)  -->
<!DOCTYPE svg PUBLIC "-//W3C//DTD SVG 1.1//EN" "http://www.w3.org/Graphics/SVG/1.1/DTD/svg11.dtd">
<svg version="1.1" id="Capa_1" xmlns="http://www.w3.org/2000/svg" xmlns:xlink="http://www.w3.org/1999/xlink" x="0px" y="0px"
	 viewBox="0 0 453.709 453.709" style="enable-background:new 0 0 453.709 453.709;" xml:space="preserve">
<g id="XMLID_5_">
	<path id="XMLID_6_" d="M226.855,107.159c-39.93,0-72.414,32.484-72.414,72.413c0,8.189,1.386,16.056,3.903,23.403
		c24.049,11.721,46.678,25.7,68.511,41.768c23.573-17.342,46.233-30.91,68.512-41.768c2.517-7.347,3.903-15.213,3.903-23.402
		C299.269,139.643,266.784,107.159,226.855,107.159z"/>
	<g id="XMLID_482_">
		<path id="XMLID_491_" d="M376.747,130.87c-1.502-4.624-5.152-8.233-9.794-9.683l-41.777-13.05l0.5-43.766
			c0.056-4.861-2.249-9.448-6.183-12.307c-3.934-2.857-9.009-3.632-13.614-2.076L264.41,63.988l-25.32-35.7
			c-2.813-3.966-7.373-6.322-12.235-6.322c-4.862,0-9.423,2.357-12.235,6.322l-25.32,35.7L147.83,49.989
			c-4.607-1.555-9.681-0.781-13.614,2.076c-3.934,2.858-6.238,7.445-6.183,12.307l0.5,43.766l-41.777,13.05
			c-4.642,1.449-8.292,5.059-9.794,9.683c-1.503,4.624-0.671,9.689,2.231,13.59l28.591,38.217
			c5.699,1.809,11.385,3.768,17.056,5.886c-0.259-2.964-0.399-5.961-0.399-8.991c0-56.396,45.891-102.413,102.414-102.413
			c56.543,0,102.414,46.029,102.414,102.413c0,3.03-0.14,6.027-0.399,8.991c5.802-2.167,11.621-4.167,17.453-6.011l28.193-38.093
			C377.418,140.559,378.25,135.494,376.747,130.87z"/>
	</g>
	<path id="XMLID_243_" d="M453.426,230.052c-0.017-8.947-3.831-17.539-10.465-23.573c-5.378-4.889-12.254-7.765-19.42-8.24
		c-0.058-0.004-0.116-0.008-0.175-0.012c-4.215-0.268-81.859,1.882-172,65.708c7.806,6.487,15.532,13.271,23.169,20.348
		c24.6,22.794,48.291,48.59,70.812,77.19c9.115,11.576,13.617,25.945,13.198,40.27c-0.309,10.539-3.25,20.817-8.798,30h71.92
		c0.007,0,0.013-0.001,0.02-0.001h0.075c8.544,0,16.573-3.33,22.608-9.377c6.033-6.041,9.351-14.075,9.338-22.619L453.426,230.052z"
		/>
	<path id="XMLID_244_" d="M207.064,267.412c-55.626-40.47-113.455-63.724-171.882-69.116c-8.89-0.818-17.792,2.145-24.435,8.184
		C4.114,212.513,0.3,221.105,0.283,230.052L0,399.748c-0.013,8.544,3.305,16.578,9.338,22.619
		c6.035,6.047,14.064,9.377,22.608,9.377h0c8.055,0,258.704,0,264.744,0c12.156,0,23.439-7.066,28.744-18.005
		c5.298-10.926,3.862-24.156-3.657-33.706C288.531,337.813,250.166,298.769,207.064,267.412z"/>
</g>
<g>
</g>
<g>
</g>
<g>
</g>
<g>
</g>
<g>
</g>
<g>
</g>
<g>
</g>
<g>
</g>
<g>
</g>
<g>
</g>
<g>
</g>
<g>
</g>
<g>
</g>
<g>
</g>
<g>
</g>
</svg>
